<svg width="55" height="50" viewBox="0 0 55 50" fill="none" xmlns="http://www.w3.org/2000/svg">
<path d="M5.59967 5.25787C2.36627 8.33652 0.585327 12.4332 0.585327 16.796C0.585327 17.5406 0.637199 18.2774 0.73931 19.0027C8.31325 12.6524 17.6638 9.05437 27.7339 9.05437C37.804 9.05437 47.1546 12.6524 54.7285 19.0027C54.8306 18.2774 54.8825 17.5406 54.8825 16.796C54.8825 12.4332 53.1016 8.33652 49.8682 5.25787C43.8412 -0.478628 34.3799 -0.994452 27.7339 3.70225C21.0879 -0.994452 11.6267 -0.478628 5.59967 5.25787Z" fill="white"/>
<path d="M48.4114 29.7178L49.8682 28.3315C50.8862 27.363 51.7602 26.2934 52.48 25.1461C45.7782 18.6261 36.8975 15.2307 27.7339 15.2307C18.5703 15.2307 9.6896 18.6261 2.98779 25.1461C3.7076 26.2934 4.58165 27.363 5.59967 28.3315L7.05645 29.7178C12.5606 24.2691 20.0041 21.407 27.7339 21.407C35.4637 21.407 42.9073 24.2691 48.4114 29.7178Z" fill="white"/>
<path d="M39.5387 38.1618L43.9586 33.9554C39.4518 29.7945 33.8693 27.5833 27.7339 27.5833C21.5986 27.5833 16.016 29.7945 11.5093 33.9555L16.0394 38.2667C19.0859 35.2619 23.2847 33.7596 27.7339 33.7596C32.131 33.7596 36.2836 35.227 39.5387 38.1618Z" fill="white"/>
<path d="M20.5909 42.5982L27.7339 49.396L35.0126 42.4691C30.7601 39.3578 24.796 39.4009 20.5909 42.5982Z" fill="white"/>
</svg>
